<svg width="1355" height="5814" viewBox="0 0 1355 5814" fill="none" xmlns="http://www.w3.org/2000/svg">
<g id="STRASSE SVG" clip-path="url(#clip0_410_2304)">
<g id="Wiese">
<rect id="Wiese_2" width="1355" height="5811" rx="36" fill="#9CB97B"/>
</g>
<g id="Strasse">
<path id="Randstein" d="M696 5811C696 5697.49 696 5505.47 482.5 5505.47C269 5505.47 182.5 5428.11 182.5 5194.45C182.5 4960.79 294.107 4872.91 449.457 4872.91C604.807 4872.91 879.55 4872.91 975.434 4872.91C1071.32 4872.91 1205 4809.11 1205 4590.29C1205 4371.48 1077.31 4297.32 975.434 4297.32C873.557 4297.32 584.524 4297.32 449.457 4297.32C314.391 4297.32 178.944 4232.06 177.019 4003.56C175.093 3775.07 320.844 3692.56 449.457 3692.56C578.07 3692.56 872.175 3692.56 975.434 3692.56C1078.69 3692.56 1205 3605.95 1205 3409.73C1205 3213.51 1084.22 3131.85 975.434 3131.85C866.642 3131.85 578.07 3131.85 449.457 3131.85C320.844 3131.85 177.019 3072.15 177.019 2821.06C177.019 2569.98 323.149 2519.95 449.457 2519.95C575.765 2519.95 893.841 2519.95 975.434 2519.95C1057.03 2519.95 1205 2447.34 1205 2235.63C1205 2023.91 1080.54 1940.79 975.434 1940.79C870.33 1940.79 590.516 1940.79 449.457 1940.79C308.398 1940.79 177.019 1893.53 177.019 1670.84C177.019 1448.15 308.398 1387.22 449.457 1387.22C590.516 1387.22 873.557 1387.22 975.434 1387.22C1077.31 1387.22 1205 1292.6 1205 1091.21C1205 889.824 1133.56 793.18 1028 793.18H918.5C918.5 793.18 819.287 795.25 765.5 763.066C711.713 730.881 690.5 695.06 690.5 608.052C690.5 521.045 691.5 0 691.5 0" stroke="#D9D9D9" stroke-width="180"/>
<path id="Strasse_2" d="M696 5811C696 5697.49 696 5505.47 482.5 5505.47C269 5505.47 182.5 5428.11 182.5 5194.45C182.5 4960.79 294.107 4872.91 449.457 4872.91C604.807 4872.91 879.55 4872.91 975.434 4872.91C1071.32 4872.91 1205 4809.11 1205 4590.29C1205 4371.48 1077.31 4297.32 975.434 4297.32C873.557 4297.32 584.524 4297.32 449.457 4297.32C314.391 4297.32 178.944 4232.06 177.019 4003.56C175.093 3775.07 320.844 3692.56 449.457 3692.56C578.07 3692.56 872.175 3692.56 975.434 3692.56C1078.69 3692.56 1205 3605.95 1205 3409.73C1205 3213.51 1084.22 3131.85 975.434 3131.85C866.642 3131.85 578.07 3131.85 449.457 3131.85C320.844 3131.85 177.019 3072.15 177.019 2821.06C177.019 2569.98 323.149 2519.95 449.457 2519.95C575.765 2519.95 893.841 2519.95 975.434 2519.95C1057.03 2519.95 1205 2447.34 1205 2235.63C1205 2023.91 1080.54 1940.79 975.434 1940.79C870.33 1940.79 590.516 1940.79 449.457 1940.79C308.398 1940.79 177.019 1893.53 177.019 1670.84C177.019 1448.15 308.398 1387.22 449.457 1387.22C590.516 1387.22 873.557 1387.22 975.434 1387.22C1077.31 1387.22 1205 1292.6 1205 1091.21C1205 889.824 1133.56 793.18 1028 793.18H918.5C918.5 793.18 819.287 795.25 765.5 763.066C711.713 730.881 690.5 695.06 690.5 608.052C690.5 521.045 691.5 0 691.5 0" stroke="#747474" stroke-width="148"/>
<path id="Mittellinie" d="M696 5811C696 5697.49 696 5505.47 482.5 5505.47C269 5505.47 182.5 5428.11 182.5 5194.45C182.5 4960.79 294.107 4872.91 449.457 4872.91C604.807 4872.91 879.55 4872.91 975.434 4872.91C1071.32 4872.91 1205 4809.11 1205 4590.29C1205 4371.48 1077.31 4297.32 975.434 4297.32C873.557 4297.32 584.524 4297.32 449.457 4297.32C314.391 4297.32 178.944 4232.06 177.019 4003.56C175.093 3775.07 320.844 3692.56 449.457 3692.56C578.07 3692.56 872.175 3692.56 975.434 3692.56C1078.69 3692.56 1205 3605.95 1205 3409.73C1205 3213.51 1084.22 3131.85 975.434 3131.85C866.642 3131.85 578.07 3131.85 449.457 3131.85C320.844 3131.85 177.019 3072.15 177.019 2821.06C177.019 2569.98 323.149 2519.95 449.457 2519.95C575.765 2519.95 893.841 2519.95 975.434 2519.95C1057.03 2519.95 1205 2447.34 1205 2235.63C1205 2023.91 1080.54 1940.79 975.434 1940.79C870.33 1940.79 590.516 1940.79 449.457 1940.79C308.398 1940.79 177.019 1893.53 177.019 1670.84C177.019 1448.15 308.398 1387.22 449.457 1387.22C590.516 1387.22 873.557 1387.22 975.434 1387.22C1077.31 1387.22 1205 1292.6 1205 1091.21C1205 889.824 1133.56 793.18 1028 793.18H918.5C918.5 793.18 819.287 795.25 765.5 763.066C711.713 730.881 690.5 695.06 690.5 608.052C690.5 521.045 691.5 0 691.5 0" stroke="white" stroke-width="7" stroke-dasharray="37 37"/>
</g>
<g id="Zebrastreifen 6">
<rect id="Rectangle 131" x="856" y="1321" width="87" height="23" fill="#FFD900"/>
<rect id="Rectangle 132" x="856" y="1350" width="87" height="23" fill="#FFD900"/>
<rect id="Rectangle 133" x="856" y="1378" width="87" height="23" fill="#FFD900"/>
<rect id="Rectangle 134" x="856" y="1407" width="87" height="23" fill="#FFD900"/>
<rect id="Rectangle 135" x="856" y="1436" width="87" height="23" fill="#FFD900"/>
</g>
<g id="Zebrastreifen 5">
<rect id="Rectangle 131_2" x="480" y="1875" width="87" height="23" fill="#FFD900"/>
<rect id="Rectangle 132_2" x="480" y="1904" width="87" height="23" fill="#FFD900"/>
<rect id="Rectangle 133_2" x="480" y="1932" width="87" height="23" fill="#FFD900"/>
<rect id="Rectangle 134_2" x="480" y="1961" width="87" height="23" fill="#FFD900"/>
<rect id="Rectangle 135_2" x="480" y="1990" width="87" height="23" fill="#FFD900"/>
</g>
<g id="Zebrastreifen 4">
<rect id="Rectangle 131_3" x="781" y="3066" width="87" height="23" fill="#FFD900"/>
<rect id="Rectangle 132_3" x="781" y="3095" width="87" height="23" fill="#FFD900"/>
<rect id="Rectangle 133_3" x="781" y="3123" width="87" height="23" fill="#FFD900"/>
<rect id="Rectangle 134_3" x="781" y="3152" width="87" height="23" fill="#FFD900"/>
<rect id="Rectangle 135_3" x="781" y="3181" width="87" height="23" fill="#FFD900"/>
</g>
<g id="Zebrastreifen 3">
<rect id="Rectangle 131_4" x="1273" y="2198" width="87" height="23" transform="rotate(90 1273 2198)" fill="#FFD900"/>
<rect id="Rectangle 132_4" x="1244" y="2198" width="87" height="23" transform="rotate(90 1244 2198)" fill="#FFD900"/>
<rect id="Rectangle 133_4" x="1216" y="2198" width="87" height="23" transform="rotate(90 1216 2198)" fill="#FFD900"/>
<rect id="Rectangle 134_4" x="1187" y="2198" width="87" height="23" transform="rotate(90 1187 2198)" fill="#FFD900"/>
<rect id="Rectangle 135_4" x="1158" y="2198" width="87" height="23" transform="rotate(90 1158 2198)" fill="#FFD900"/>
</g>
<g id="Zebrastreifen 2">
<rect id="Rectangle 131_5" x="246" y="3963" width="87" height="23" transform="rotate(90 246 3963)" fill="#FFD900"/>
<rect id="Rectangle 132_5" x="217" y="3963" width="87" height="23" transform="rotate(90 217 3963)" fill="#FFD900"/>
<rect id="Rectangle 133_5" x="189" y="3963" width="87" height="23" transform="rotate(90 189 3963)" fill="#FFD900"/>
<rect id="Rectangle 134_5" x="160" y="3963" width="87" height="23" transform="rotate(90 160 3963)" fill="#FFD900"/>
<rect id="Rectangle 135_5" x="131" y="3963" width="87" height="23" transform="rotate(90 131 3963)" fill="#FFD900"/>
</g>
<g id="Zebrastreifen 1">
<rect id="Rectangle 131_6" x="556" y="4807" width="87" height="23" fill="#FFD900"/>
<rect id="Rectangle 132_6" x="556" y="4836" width="87" height="23" fill="#FFD900"/>
<rect id="Rectangle 133_6" x="556" y="4864" width="87" height="23" fill="#FFD900"/>
<rect id="Rectangle 134_6" x="556" y="4893" width="87" height="23" fill="#FFD900"/>
<rect id="Rectangle 135_6" x="556" y="4922" width="87" height="23" fill="#FFD900"/>
</g>
<g id="Baum 8">
<path id="Rectangle 1" d="M359.313 2180.07H400.509C397.789 2258.3 388.857 2345.11 400.509 2345.11C412.161 2345.11 341.305 2345.11 359.313 2345.11C377.321 2345.11 359.313 2180.07 359.313 2180.07Z" fill="#795D00"/>
<ellipse id="Ellipse 1" cx="320.486" cy="2180.07" rx="33.4865" ry="31.0946" fill="#128733"/>
<ellipse id="Ellipse 2" cx="337.23" cy="2137.01" rx="33.4865" ry="31.0946" fill="#128733"/>
<ellipse id="Ellipse 3" cx="377.892" cy="2160.93" rx="33.4865" ry="31.0946" fill="#128733"/>
<ellipse id="Ellipse 4" cx="373.109" cy="2113.09" rx="33.4865" ry="31.0946" fill="#128733"/>
<ellipse id="Ellipse 5" cx="408.986" cy="2132.23" rx="33.4865" ry="31.0946" fill="#128733"/>
<ellipse id="Ellipse 6" cx="430.514" cy="2158.54" rx="33.4865" ry="31.0946" fill="#128733"/>
<ellipse id="Ellipse 7" cx="413.771" cy="2199.2" rx="33.4865" ry="31.0946" fill="#128733"/>
<ellipse id="Ellipse 8" cx="356.364" cy="2211.16" rx="33.4865" ry="31.0946" fill="#128733"/>
</g>
<g id="Baum 7">
<path id="Rectangle 1_2" d="M1012.31 3962.07H1053.51C1050.79 4040.3 1041.86 4127.11 1053.51 4127.11C1065.16 4127.11 994.305 4127.11 1012.31 4127.11C1030.32 4127.11 1012.31 3962.07 1012.31 3962.07Z" fill="#795D00"/>
<ellipse id="Ellipse 1_2" cx="973.487" cy="3962.07" rx="33.4865" ry="31.0946" fill="#128733"/>
<ellipse id="Ellipse 2_2" cx="990.23" cy="3919.01" rx="33.4865" ry="31.0946" fill="#128733"/>
<ellipse id="Ellipse 3_2" cx="1030.89" cy="3942.93" rx="33.4865" ry="31.0946" fill="#128733"/>
<ellipse id="Ellipse 4_2" cx="1026.11" cy="3895.09" rx="33.4865" ry="31.0946" fill="#128733"/>
<ellipse id="Ellipse 5_2" cx="1061.99" cy="3914.23" rx="33.4865" ry="31.0946" fill="#128733"/>
<ellipse id="Ellipse 6_2" cx="1083.51" cy="3940.54" rx="33.4865" ry="31.0946" fill="#128733"/>
<ellipse id="Ellipse 7_2" cx="1066.77" cy="3981.2" rx="33.4865" ry="31.0946" fill="#128733"/>
<ellipse id="Ellipse 8_2" cx="1009.36" cy="3993.16" rx="33.4865" ry="31.0946" fill="#128733"/>
</g>
<g id="Baum 6">
<path id="Rectangle 1_3" d="M118.313 5630.07H159.509C156.789 5708.3 147.857 5795.11 159.509 5795.11C171.161 5795.11 100.305 5795.11 118.313 5795.11C136.321 5795.11 118.313 5630.07 118.313 5630.07Z" fill="#795D00"/>
<ellipse id="Ellipse 1_3" cx="79.4865" cy="5630.07" rx="33.4865" ry="31.0946" fill="#128733"/>
<ellipse id="Ellipse 2_3" cx="96.2296" cy="5587.01" rx="33.4865" ry="31.0946" fill="#128733"/>
<ellipse id="Ellipse 3_3" cx="136.892" cy="5610.93" rx="33.4865" ry="31.0946" fill="#128733"/>
<ellipse id="Ellipse 4_3" cx="132.109" cy="5563.09" rx="33.4865" ry="31.0946" fill="#128733"/>
<ellipse id="Ellipse 5_3" cx="167.986" cy="5582.23" rx="33.4865" ry="31.0946" fill="#128733"/>
<ellipse id="Ellipse 6_3" cx="189.514" cy="5608.54" rx="33.4865" ry="31.0946" fill="#128733"/>
<ellipse id="Ellipse 7_3" cx="172.771" cy="5649.2" rx="33.4865" ry="31.0946" fill="#128733"/>
<ellipse id="Ellipse 8_3" cx="115.364" cy="5661.16" rx="33.4865" ry="31.0946" fill="#128733"/>
</g>
<g id="Baum 5">
<path id="Rectangle 1_4" d="M118.313 5630.07H159.509C156.789 5708.3 147.857 5795.11 159.509 5795.11C171.161 5795.11 100.305 5795.11 118.313 5795.11C136.321 5795.11 118.313 5630.07 118.313 5630.07Z" fill="#795D00"/>
<ellipse id="Ellipse 1_4" cx="79.4865" cy="5630.07" rx="33.4865" ry="31.0946" fill="#128733"/>
<ellipse id="Ellipse 2_4" cx="96.2296" cy="5587.01" rx="33.4865" ry="31.0946" fill="#128733"/>
<ellipse id="Ellipse 3_4" cx="136.892" cy="5610.93" rx="33.4865" ry="31.0946" fill="#128733"/>
<ellipse id="Ellipse 4_4" cx="132.109" cy="5563.09" rx="33.4865" ry="31.0946" fill="#128733"/>
<ellipse id="Ellipse 5_4" cx="167.986" cy="5582.23" rx="33.4865" ry="31.0946" fill="#128733"/>
<ellipse id="Ellipse 6_4" cx="189.514" cy="5608.54" rx="33.4865" ry="31.0946" fill="#128733"/>
<ellipse id="Ellipse 7_4" cx="172.771" cy="5649.2" rx="33.4865" ry="31.0946" fill="#128733"/>
<ellipse id="Ellipse 8_4" cx="115.364" cy="5661.16" rx="33.4865" ry="31.0946" fill="#128733"/>
</g>
<g id="Baum 4">
<path id="Rectangle 2" d="M419.434 155.881H448.4C446.487 202.882 440.207 255.041 448.4 255.041C456.593 255.041 406.772 255.041 419.434 255.041C432.096 255.041 419.434 155.881 419.434 155.881Z" fill="#795D00"/>
<path id="Polygon 1" d="M433.884 161.889L453.22 194.033L473.769 220.919H394L410.681 197.938L433.884 161.889Z" fill="#015600"/>
<path id="Polygon 2" d="M433.884 129.444L452.869 163.691L473.769 188.475H394L412.439 166.395L433.884 129.444Z" fill="#015600"/>
<path id="Polygon 3" d="M433.884 97L451.462 132.448L473.769 156.031H394L411.033 136.654L433.884 97Z" fill="#015600"/>
</g>
<g id="Baum 3">
<path id="Rectangle 2_2" d="M364.434 154.881H393.4C391.487 201.882 385.207 254.041 393.4 254.041C401.593 254.041 351.772 254.041 364.434 254.041C377.096 254.041 364.434 154.881 364.434 154.881Z" fill="#795D00"/>
<path id="Polygon 1_2" d="M378.884 160.889L398.22 193.033L418.769 219.919H339L355.681 196.938L378.884 160.889Z" fill="#015600"/>
<path id="Polygon 2_2" d="M378.884 128.444L397.869 162.691L418.769 187.475H339L357.439 165.395L378.884 128.444Z" fill="#015600"/>
<path id="Polygon 3_2" d="M378.884 96L396.462 131.448L418.769 155.031H339L356.033 135.654L378.884 96Z" fill="#015600"/>
</g>
<g id="Baum 2">
<path id="Rectangle 2_3" d="M1052.01 5463.84H1085.06C1082.88 5515.6 1075.71 5573.04 1085.06 5573.04C1094.41 5573.04 1037.57 5573.04 1052.01 5573.04C1066.46 5573.04 1052.01 5463.84 1052.01 5463.84Z" fill="#795D00"/>
<path id="Polygon 1_3" d="M1068.5 5470.46L1090.56 5505.86L1114 5535.47H1023L1042.03 5510.16L1068.5 5470.46Z" fill="#015600"/>
<path id="Polygon 2_3" d="M1068.5 5434.73L1090.16 5472.44L1114 5499.74H1023L1044.04 5475.42L1068.5 5434.73Z" fill="#015600"/>
<path id="Polygon 3_3" d="M1068.5 5399L1088.55 5438.04L1114 5464.01H1023L1042.43 5442.67L1068.5 5399Z" fill="#015600"/>
</g>
<g id="Baum 1">
<path id="Rectangle 2_4" d="M1143.01 5433.84H1176.06C1173.88 5485.6 1166.71 5543.04 1176.06 5543.04C1185.41 5543.04 1128.57 5543.04 1143.01 5543.04C1157.46 5543.04 1143.01 5433.84 1143.01 5433.84Z" fill="#795D00"/>
<path id="Polygon 1_4" d="M1159.5 5440.46L1181.56 5475.86L1205 5505.47H1114L1133.03 5480.16L1159.5 5440.46Z" fill="#015600"/>
<path id="Polygon 2_4" d="M1159.5 5404.73L1181.16 5442.44L1205 5469.74H1114L1135.04 5445.42L1159.5 5404.73Z" fill="#015600"/>
<path id="Polygon 3_4" d="M1159.5 5369L1179.55 5408.04L1205 5434.01H1114L1133.43 5412.67L1159.5 5369Z" fill="#015600"/>
</g>
<g id="50er Tafel 2">
<g id="Group 3">
<rect id="Rectangle 2_5" x="531.049" y="73.0488" width="3.40488" height="105.551" fill="#D9D9D9"/>
<circle id="Ellipse 9" cx="531.049" cy="73.0488" r="34.0488" fill="#FF0000"/>
<circle id="Ellipse 10" cx="531.049" cy="73.0487" r="23.8341" fill="white"/>
<g id="50">
<path d="M524.261 82.2387C523.261 82.2387 522.361 82.0398 521.56 81.6421C520.758 81.2444 520.116 80.6989 519.633 80.0057C519.15 79.3126 518.886 78.5228 518.841 77.6364H520.886C520.966 78.4262 521.324 79.0796 521.96 79.5967C522.602 80.108 523.369 80.3637 524.261 80.3637C524.977 80.3637 525.614 80.1961 526.17 79.8609C526.733 79.5256 527.173 79.0654 527.491 78.4802C527.815 77.8893 527.977 77.2217 527.977 76.4773C527.977 75.716 527.81 75.037 527.474 74.4404C527.145 73.8381 526.69 73.3637 526.111 73.0171C525.531 72.6705 524.869 72.4944 524.125 72.4887C523.591 72.483 523.043 72.5654 522.48 72.7359C521.918 72.9006 521.454 73.1137 521.091 73.3751L519.114 73.1364L520.17 64.5455H529.239V66.4205H521.943L521.329 71.5682H521.432C521.79 71.2842 522.239 71.0484 522.778 70.8609C523.318 70.6734 523.881 70.5796 524.466 70.5796C525.534 70.5796 526.486 70.8353 527.321 71.3467C528.162 71.8523 528.821 72.5455 529.298 73.4262C529.781 74.3069 530.023 75.3126 530.023 76.4432C530.023 77.5569 529.773 78.5512 529.273 79.4262C528.778 80.2955 528.097 80.983 527.227 81.4887C526.358 81.9887 525.369 82.2387 524.261 82.2387Z" fill="black"/>
<path d="M539.101 82.2387C537.817 82.2387 536.724 81.8893 535.82 81.1904C534.917 80.4859 534.226 79.466 533.749 78.1307C533.272 76.7898 533.033 75.1705 533.033 73.2728C533.033 71.3864 533.272 69.7756 533.749 68.4404C534.232 67.0995 534.925 66.0768 535.829 65.3722C536.738 64.662 537.829 64.3069 539.101 64.3069C540.374 64.3069 541.462 64.662 542.366 65.3722C543.275 66.0768 543.968 67.0995 544.445 68.4404C544.928 69.7756 545.17 71.3864 545.17 73.2728C545.17 75.1705 544.931 76.7898 544.454 78.1307C543.976 79.466 543.286 80.4859 542.383 81.1904C541.479 81.8893 540.386 82.2387 539.101 82.2387ZM539.101 80.3637C540.374 80.3637 541.363 79.7501 542.067 78.5228C542.772 77.2955 543.124 75.5455 543.124 73.2728C543.124 71.7614 542.962 70.4745 542.638 69.412C542.32 68.3495 541.86 67.5398 541.258 66.983C540.661 66.4262 539.942 66.1478 539.101 66.1478C537.84 66.1478 536.854 66.77 536.144 68.0143C535.434 69.2529 535.079 71.0057 535.079 73.2728C535.079 74.7842 535.238 76.0682 535.556 77.1251C535.874 78.1819 536.332 78.9859 536.928 79.537C537.53 80.0881 538.255 80.3637 539.101 80.3637Z" fill="black"/>
</g>
</g>
</g>
<g id="50er Tafel 1">
<g id="Group 3_2">
<rect id="Rectangle 2_6" x="843.049" y="5683.05" width="3.40488" height="105.551" fill="#D9D9D9"/>
<circle id="Ellipse 9_2" cx="843.049" cy="5683.05" r="34.0488" fill="#FF0000"/>
<circle id="Ellipse 10_2" cx="843.049" cy="5683.05" r="23.8341" fill="white"/>
<g id="50_2">
<path d="M836.261 5692.24C835.261 5692.24 834.361 5692.04 833.56 5691.64C832.758 5691.24 832.116 5690.7 831.633 5690.01C831.15 5689.31 830.886 5688.52 830.841 5687.64H832.886C832.966 5688.43 833.324 5689.08 833.96 5689.6C834.602 5690.11 835.369 5690.36 836.261 5690.36C836.977 5690.36 837.614 5690.2 838.17 5689.86C838.733 5689.53 839.173 5689.07 839.491 5688.48C839.815 5687.89 839.977 5687.22 839.977 5686.48C839.977 5685.72 839.81 5685.04 839.474 5684.44C839.145 5683.84 838.69 5683.36 838.111 5683.02C837.531 5682.67 836.869 5682.49 836.125 5682.49C835.591 5682.48 835.043 5682.57 834.48 5682.74C833.918 5682.9 833.454 5683.11 833.091 5683.37L831.114 5683.14L832.17 5674.55H841.239V5676.42H833.943L833.329 5681.57H833.432C833.79 5681.28 834.239 5681.05 834.778 5680.86C835.318 5680.67 835.881 5680.58 836.466 5680.58C837.534 5680.58 838.486 5680.84 839.321 5681.35C840.162 5681.85 840.821 5682.55 841.298 5683.43C841.781 5684.31 842.023 5685.31 842.023 5686.44C842.023 5687.56 841.773 5688.55 841.273 5689.43C840.778 5690.3 840.097 5690.98 839.227 5691.49C838.358 5691.99 837.369 5692.24 836.261 5692.24Z" fill="black"/>
<path d="M851.101 5692.24C849.817 5692.24 848.724 5691.89 847.82 5691.19C846.917 5690.49 846.226 5689.47 845.749 5688.13C845.272 5686.79 845.033 5685.17 845.033 5683.27C845.033 5681.39 845.272 5679.78 845.749 5678.44C846.232 5677.1 846.925 5676.08 847.829 5675.37C848.738 5674.66 849.829 5674.31 851.101 5674.31C852.374 5674.31 853.462 5674.66 854.366 5675.37C855.275 5676.08 855.968 5677.1 856.445 5678.44C856.928 5679.78 857.17 5681.39 857.17 5683.27C857.17 5685.17 856.931 5686.79 856.454 5688.13C855.976 5689.47 855.286 5690.49 854.383 5691.19C853.479 5691.89 852.386 5692.24 851.101 5692.24ZM851.101 5690.36C852.374 5690.36 853.363 5689.75 854.067 5688.52C854.772 5687.3 855.124 5685.55 855.124 5683.27C855.124 5681.76 854.962 5680.47 854.638 5679.41C854.32 5678.35 853.86 5677.54 853.258 5676.98C852.661 5676.43 851.942 5676.15 851.101 5676.15C849.84 5676.15 848.854 5676.77 848.144 5678.01C847.434 5679.25 847.079 5681.01 847.079 5683.27C847.079 5684.78 847.238 5686.07 847.556 5687.12C847.874 5688.18 848.332 5688.99 848.928 5689.54C849.53 5690.09 850.255 5690.36 851.101 5690.36Z" fill="black"/>
</g>
</g>
</g>
<g id="Haus 5">
<rect id="Rectangle 95" x="124.292" y="2277.12" width="162.708" height="66.6777" fill="#C5602A"/>
<path id="Polygon 4" d="M242.084 2202.34L287.001 2277.12L196.834 2277.69L242.084 2202.34Z" fill="#C5602A"/>
<path id="Polygon 6" d="M123.855 2276.94L159.521 2202.87L242.896 2203.21L207.229 2277.29L123.855 2276.94Z" fill="#EDE050"/>
<rect id="Rectangle 96" x="246.209" y="2290.19" width="27.0417" height="53.6125" fill="black"/>
<rect id="Rectangle 97" x="140.792" y="2213.15" width="9.16667" height="27.0315" fill="black"/>
<rect id="Rectangle 98" x="135.292" y="2289.74" width="25.6667" height="31.0862" fill="white"/>
<rect id="Rectangle 99" x="136.667" y="2291.09" width="22.9167" height="28.3831" fill="#695E5E"/>
<rect id="Rectangle 100" x="148.125" y="2290.19" width="0.916667" height="30.6357" fill="#AADFFF"/>
<rect id="Rectangle 101" width="0.846702" height="25.7733" transform="matrix(-0.00377812 0.999993 -0.999993 -0.00365049 161.066 2305.15)" fill="#AADFFF"/>
<rect id="Rectangle 102" x="124.292" y="2277.12" width="162.708" height="66.6777" fill="#C5602A"/>
<path id="Polygon 7" d="M242.084 2202.34L287.001 2277.12L196.834 2277.69L242.084 2202.34Z" fill="#C5602A"/>
<path id="Polygon 8" d="M123.855 2276.94L159.521 2202.87L242.084 2202.49L207.229 2277.29L123.855 2276.94Z" fill="#EDE050"/>
<rect id="Rectangle 103" x="140.792" y="2213.15" width="9.16667" height="27.0315" fill="black"/>
<rect id="Rectangle 104" x="135.292" y="2289.74" width="25.6667" height="31.0862" fill="white"/>
<rect id="Rectangle 105" x="136.667" y="2291.09" width="22.9167" height="28.3831" fill="#695E5E"/>
<rect id="Rectangle 106" x="148.125" y="2290.19" width="0.916667" height="30.6357" fill="#AADFFF"/>
<rect id="Rectangle 107" width="0.846702" height="25.7733" transform="matrix(-0.00377812 0.999993 -0.999993 -0.00365049 161.066 2305.15)" fill="#AADFFF"/>
<rect id="Rectangle 108" x="191.21" y="2289.74" width="25.6667" height="31.0862" fill="white"/>
<rect id="Rectangle 109" x="192.585" y="2291.09" width="22.9167" height="28.3831" fill="#695E5E"/>
<rect id="Rectangle 110" x="204.043" y="2290.19" width="0.916667" height="30.6357" fill="#AADFFF"/>
<rect id="Rectangle 111" width="0.846702" height="25.7733" transform="matrix(-0.00377812 0.999993 -0.999993 -0.00365049 216.985 2305.15)" fill="#AADFFF"/>
<rect id="Rectangle 112" x="254.459" y="2292.44" width="21.5417" height="51.3599" fill="black"/>
</g>
<g id="Haus 4">
<rect id="Rectangle 95_2" x="1146.29" y="5510.12" width="162.708" height="66.6777" fill="#C5602A"/>
<path id="Polygon 4_2" d="M1264.08 5435.34L1309 5510.12L1218.83 5510.69L1264.08 5435.34Z" fill="#C5602A"/>
<path id="Polygon 6_2" d="M1145.85 5509.94L1181.52 5435.87L1264.9 5436.21L1229.23 5510.29L1145.85 5509.94Z" fill="#EDE050"/>
<rect id="Rectangle 96_2" x="1268.21" y="5523.19" width="27.0417" height="53.6125" fill="black"/>
<rect id="Rectangle 97_2" x="1162.79" y="5446.15" width="9.16667" height="27.0315" fill="black"/>
<rect id="Rectangle 98_2" x="1157.29" y="5522.74" width="25.6667" height="31.0862" fill="white"/>
<rect id="Rectangle 99_2" x="1158.67" y="5524.09" width="22.9167" height="28.3831" fill="#695E5E"/>
<rect id="Rectangle 100_2" x="1170.12" y="5523.19" width="0.916667" height="30.6357" fill="#AADFFF"/>
<rect id="Rectangle 101_2" width="0.846702" height="25.7733" transform="matrix(-0.00377812 0.999993 -0.999993 -0.00365049 1183.07 5538.15)" fill="#AADFFF"/>
<rect id="Rectangle 102_2" x="1146.29" y="5510.12" width="162.708" height="66.6777" fill="#C5602A"/>
<path id="Polygon 7_2" d="M1264.08 5435.34L1309 5510.12L1218.83 5510.69L1264.08 5435.34Z" fill="#C5602A"/>
<path id="Polygon 8_2" d="M1145.85 5509.94L1181.52 5435.87L1264.08 5435.49L1229.23 5510.29L1145.85 5509.94Z" fill="#EDE050"/>
<rect id="Rectangle 103_2" x="1162.79" y="5446.15" width="9.16667" height="27.0315" fill="black"/>
<rect id="Rectangle 104_2" x="1157.29" y="5522.74" width="25.6667" height="31.0862" fill="white"/>
<rect id="Rectangle 105_2" x="1158.67" y="5524.09" width="22.9167" height="28.3831" fill="#695E5E"/>
<rect id="Rectangle 106_2" x="1170.12" y="5523.19" width="0.916667" height="30.6357" fill="#AADFFF"/>
<rect id="Rectangle 107_2" width="0.846702" height="25.7733" transform="matrix(-0.00377812 0.999993 -0.999993 -0.00365049 1183.07 5538.15)" fill="#AADFFF"/>
<rect id="Rectangle 108_2" x="1213.21" y="5522.74" width="25.6667" height="31.0862" fill="white"/>
<rect id="Rectangle 109_2" x="1214.58" y="5524.09" width="22.9167" height="28.3831" fill="#695E5E"/>
<rect id="Rectangle 110_2" x="1226.04" y="5523.19" width="0.916667" height="30.6357" fill="#AADFFF"/>
<rect id="Rectangle 111_2" width="0.846702" height="25.7733" transform="matrix(-0.00377812 0.999993 -0.999993 -0.00365049 1238.99 5538.15)" fill="#AADFFF"/>
<rect id="Rectangle 112_2" x="1276.46" y="5525.44" width="21.5417" height="51.3599" fill="black"/>
</g>
<g id="Haus 3">
<rect id="Rectangle 95_3" x="987.292" y="5669.12" width="162.708" height="66.6777" fill="#C5602A"/>
<path id="Polygon 4_3" d="M1105.08 5594.34L1150 5669.12L1059.83 5669.69L1105.08 5594.34Z" fill="#C5602A"/>
<path id="Polygon 6_3" d="M986.855 5668.94L1022.52 5594.87L1105.9 5595.21L1070.23 5669.29L986.855 5668.94Z" fill="#EDE050"/>
<rect id="Rectangle 96_3" x="1109.21" y="5682.19" width="27.0417" height="53.6125" fill="black"/>
<rect id="Rectangle 97_3" x="1003.79" y="5605.15" width="9.16667" height="27.0315" fill="black"/>
<rect id="Rectangle 98_3" x="998.292" y="5681.74" width="25.6667" height="31.0862" fill="white"/>
<rect id="Rectangle 99_3" x="999.667" y="5683.09" width="22.9167" height="28.3831" fill="#695E5E"/>
<rect id="Rectangle 100_3" x="1011.12" y="5682.19" width="0.916667" height="30.6357" fill="#AADFFF"/>
<rect id="Rectangle 101_3" width="0.846702" height="25.7733" transform="matrix(-0.00377812 0.999993 -0.999993 -0.00365049 1024.07 5697.15)" fill="#AADFFF"/>
<rect id="Rectangle 102_3" x="987.292" y="5669.12" width="162.708" height="66.6777" fill="#C5602A"/>
<path id="Polygon 7_3" d="M1105.08 5594.34L1150 5669.12L1059.83 5669.69L1105.08 5594.34Z" fill="#C5602A"/>
<path id="Polygon 8_3" d="M986.855 5668.94L1022.52 5594.87L1105.08 5594.49L1070.23 5669.29L986.855 5668.94Z" fill="#EDE050"/>
<rect id="Rectangle 103_3" x="1003.79" y="5605.15" width="9.16667" height="27.0315" fill="black"/>
<rect id="Rectangle 104_3" x="998.292" y="5681.74" width="25.6667" height="31.0862" fill="white"/>
<rect id="Rectangle 105_3" x="999.667" y="5683.09" width="22.9167" height="28.3831" fill="#695E5E"/>
<rect id="Rectangle 106_3" x="1011.12" y="5682.19" width="0.916667" height="30.6357" fill="#AADFFF"/>
<rect id="Rectangle 107_3" width="0.846702" height="25.7733" transform="matrix(-0.00377812 0.999993 -0.999993 -0.00365049 1024.07 5697.15)" fill="#AADFFF"/>
<rect id="Rectangle 108_3" x="1054.21" y="5681.74" width="25.6667" height="31.0862" fill="white"/>
<rect id="Rectangle 109_3" x="1055.58" y="5683.09" width="22.9167" height="28.3831" fill="#695E5E"/>
<rect id="Rectangle 110_3" x="1067.04" y="5682.19" width="0.916667" height="30.6357" fill="#AADFFF"/>
<rect id="Rectangle 111_3" width="0.846702" height="25.7733" transform="matrix(-0.00377812 0.999993 -0.999993 -0.00365049 1079.99 5697.15)" fill="#AADFFF"/>
<rect id="Rectangle 112_3" x="1117.46" y="5684.44" width="21.5417" height="51.3599" fill="black"/>
</g>
<g id="Haus 2">
<rect id="Rectangle 95_4" x="89.291" y="175.124" width="162.708" height="66.6777" fill="#C5602A"/>
<path id="Polygon 4_4" d="M207.083 100.337L252 175.124L161.833 175.687L207.083 100.337Z" fill="#C5602A"/>
<path id="Polygon 6_4" d="M88.8538 174.943L124.52 100.865L207.895 101.212L172.228 175.29L88.8538 174.943Z" fill="#EDE050"/>
<rect id="Rectangle 96_4" x="211.208" y="188.189" width="27.0417" height="53.6125" fill="black"/>
<rect id="Rectangle 97_4" x="105.791" y="111.15" width="9.16667" height="27.0315" fill="black"/>
<rect id="Rectangle 98_4" x="100.291" y="187.739" width="25.6667" height="31.0862" fill="white"/>
<rect id="Rectangle 99_4" x="101.666" y="189.091" width="22.9167" height="28.3831" fill="#695E5E"/>
<rect id="Rectangle 100_4" x="113.125" y="188.189" width="0.916667" height="30.6357" fill="#AADFFF"/>
<rect id="Rectangle 101_4" width="0.846702" height="25.7733" transform="matrix(-0.00377812 0.999993 -0.999993 -0.00365049 126.066 203.151)" fill="#AADFFF"/>
<rect id="Rectangle 102_4" x="89.291" y="175.124" width="162.708" height="66.6777" fill="#C5602A"/>
<path id="Polygon 7_4" d="M207.083 100.337L252 175.124L161.833 175.687L207.083 100.337Z" fill="#C5602A"/>
<path id="Polygon 8_4" d="M88.8538 174.943L124.52 100.865L207.083 100.493L172.228 175.29L88.8538 174.943Z" fill="#EDE050"/>
<rect id="Rectangle 103_4" x="105.791" y="111.15" width="9.16667" height="27.0315" fill="black"/>
<rect id="Rectangle 104_4" x="100.291" y="187.739" width="25.6667" height="31.0862" fill="white"/>
<rect id="Rectangle 105_4" x="101.666" y="189.091" width="22.9167" height="28.3831" fill="#695E5E"/>
<rect id="Rectangle 106_4" x="113.125" y="188.189" width="0.916667" height="30.6357" fill="#AADFFF"/>
<rect id="Rectangle 107_4" width="0.846702" height="25.7733" transform="matrix(-0.00377812 0.999993 -0.999993 -0.00365049 126.066 203.151)" fill="#AADFFF"/>
<rect id="Rectangle 108_4" x="156.21" y="187.739" width="25.6667" height="31.0862" fill="white"/>
<rect id="Rectangle 109_4" x="157.584" y="189.091" width="22.9167" height="28.3831" fill="#695E5E"/>
<rect id="Rectangle 110_4" x="169.043" y="188.189" width="0.916667" height="30.6357" fill="#AADFFF"/>
<rect id="Rectangle 111_4" width="0.846702" height="25.7733" transform="matrix(-0.00377812 0.999993 -0.999993 -0.00365049 181.984 203.151)" fill="#AADFFF"/>
<rect id="Rectangle 112_4" x="219.458" y="190.442" width="21.5417" height="51.3599" fill="black"/>
</g>
<g id="Haus 1">
<rect id="Rectangle 95_5" x="281.291" y="250.124" width="162.708" height="66.6777" fill="#C5602A"/>
<path id="Polygon 4_5" d="M399.083 175.337L444 250.124L353.833 250.687L399.083 175.337Z" fill="#C5602A"/>
<path id="Polygon 6_5" d="M280.854 249.943L316.52 175.865L399.895 176.212L364.228 250.29L280.854 249.943Z" fill="#EDE050"/>
<rect id="Rectangle 96_5" x="403.208" y="263.189" width="27.0417" height="53.6125" fill="black"/>
<rect id="Rectangle 97_5" x="297.791" y="186.15" width="9.16667" height="27.0315" fill="black"/>
<rect id="Rectangle 98_5" x="292.291" y="262.739" width="25.6667" height="31.0862" fill="white"/>
<rect id="Rectangle 99_5" x="293.666" y="264.091" width="22.9167" height="28.3831" fill="#695E5E"/>
<rect id="Rectangle 100_5" x="305.125" y="263.189" width="0.916667" height="30.6357" fill="#AADFFF"/>
<rect id="Rectangle 101_5" width="0.846702" height="25.7733" transform="matrix(-0.00377812 0.999993 -0.999993 -0.00365049 318.066 278.151)" fill="#AADFFF"/>
<rect id="Rectangle 102_5" x="281.291" y="250.124" width="162.708" height="66.6777" fill="#C5602A"/>
<path id="Polygon 7_5" d="M399.083 175.337L444 250.124L353.833 250.687L399.083 175.337Z" fill="#C5602A"/>
<path id="Polygon 8_5" d="M280.854 249.943L316.52 175.865L399.083 175.493L364.228 250.29L280.854 249.943Z" fill="#EDE050"/>
<rect id="Rectangle 103_5" x="297.791" y="186.15" width="9.16667" height="27.0315" fill="black"/>
<rect id="Rectangle 104_5" x="292.291" y="262.739" width="25.6667" height="31.0862" fill="white"/>
<rect id="Rectangle 105_5" x="293.666" y="264.091" width="22.9167" height="28.3831" fill="#695E5E"/>
<rect id="Rectangle 106_5" x="305.125" y="263.189" width="0.916667" height="30.6357" fill="#AADFFF"/>
<rect id="Rectangle 107_5" width="0.846702" height="25.7733" transform="matrix(-0.00377812 0.999993 -0.999993 -0.00365049 318.066 278.151)" fill="#AADFFF"/>
<rect id="Rectangle 108_5" x="348.21" y="262.739" width="25.6667" height="31.0862" fill="white"/>
<rect id="Rectangle 109_5" x="349.584" y="264.091" width="22.9167" height="28.3831" fill="#695E5E"/>
<rect id="Rectangle 110_5" x="361.043" y="263.189" width="0.916667" height="30.6357" fill="#AADFFF"/>
<rect id="Rectangle 111_5" width="0.846702" height="25.7733" transform="matrix(-0.00377812 0.999993 -0.999993 -0.00365049 373.984 278.151)" fill="#AADFFF"/>
<rect id="Rectangle 112_5" x="411.458" y="265.442" width="21.5417" height="51.3599" fill="black"/>
</g>
<g id="Baum">
<path id="Rectangle 2_7" d="M95.434 220.881H124.4C122.487 267.882 116.207 320.041 124.4 320.041C132.593 320.041 82.7725 320.041 95.434 320.041C108.096 320.041 95.434 220.881 95.434 220.881Z" fill="#795D00"/>
<path id="Polygon 1_5" d="M109.884 226.889L129.22 259.033L149.769 285.919H70L86.6814 262.938L109.884 226.889Z" fill="#015600"/>
<path id="Polygon 2_5" d="M109.884 194.444L128.869 228.691L149.769 253.475H70L88.4392 231.395L109.884 194.444Z" fill="#015600"/>
<path id="Polygon 3_5" d="M109.884 162L127.462 197.448L149.769 221.031H70L87.0329 201.654L109.884 162Z" fill="#015600"/>
</g>
<g id="Sitzbank 3">
<rect id="Rectangle 127" x="1090.07" y="4081" width="3.2" height="24.5895" fill="black"/>
<rect id="Rectangle 129" x="1086.87" y="4110.98" width="3.2" height="15.8316" fill="black"/>
<rect id="Rectangle 130" x="1155.76" y="4110.98" width="3.2" height="15.8316" fill="black"/>
<rect id="Rectangle 128" x="1152.56" y="4081" width="3.2" height="24.5895" fill="black"/>
<g id="Group 30">
<rect id="Rectangle 125" x="1086.2" y="4082.52" width="73.4316" height="5.05263" rx="2.52632" fill="#FDBC60"/>
<path id="Rectangle 126" d="M1086.2 4085.88H1159.63V4085.88C1159.63 4086.81 1158.88 4087.57 1157.95 4087.57H1087.88C1086.95 4087.57 1086.2 4086.81 1086.2 4085.88V4085.88Z" fill="#D08834"/>
<g id="Group 28">
<circle id="Ellipse 85" cx="1091.59" cy="4084.87" r="0.842105" fill="#D9D9D9"/>
<path id="Ellipse 87" d="M1090.79 4085.14C1090.86 4085.35 1091.02 4085.53 1091.22 4085.63C1091.42 4085.73 1091.65 4085.74 1091.86 4085.67C1092.07 4085.6 1092.24 4085.45 1092.34 4085.25C1092.44 4085.05 1092.46 4084.82 1092.39 4084.6L1091.59 4084.87L1090.79 4085.14Z" fill="#747474"/>
</g>
<g id="Group 29">
<circle id="Ellipse 85_2" cx="1154.07" cy="4084.87" r="0.842105" fill="#D9D9D9"/>
<path id="Ellipse 87_2" d="M1153.28 4085.14C1153.35 4085.35 1153.5 4085.53 1153.7 4085.63C1153.9 4085.73 1154.13 4085.74 1154.34 4085.67C1154.55 4085.6 1154.73 4085.45 1154.83 4085.25C1154.93 4085.05 1154.94 4084.82 1154.87 4084.6L1154.07 4084.87L1153.28 4085.14Z" fill="#747474"/>
</g>
</g>
<g id="Group 31">
<rect id="Rectangle 125_2" x="1086.2" y="4089.93" width="73.4316" height="5.05263" rx="2.52632" fill="#FDBC60"/>
<path id="Rectangle 126_2" d="M1086.2 4093.29H1159.63V4093.29C1159.63 4094.23 1158.88 4094.98 1157.95 4094.98H1087.88C1086.95 4094.98 1086.2 4094.23 1086.2 4093.29V4093.29Z" fill="#D08834"/>
<g id="Group 28_2">
<circle id="Ellipse 85_3" cx="1091.59" cy="4092.28" r="0.842105" fill="#D9D9D9"/>
<path id="Ellipse 87_3" d="M1090.79 4092.55C1090.86 4092.77 1091.02 4092.94 1091.22 4093.04C1091.42 4093.14 1091.65 4093.15 1091.86 4093.08C1092.07 4093.01 1092.24 4092.86 1092.34 4092.66C1092.44 4092.46 1092.46 4092.23 1092.39 4092.01L1091.59 4092.28L1090.79 4092.55Z" fill="#747474"/>
</g>
<g id="Group 29_2">
<circle id="Ellipse 85_4" cx="1154.07" cy="4092.28" r="0.842105" fill="#D9D9D9"/>
<path id="Ellipse 87_4" d="M1153.28 4092.55C1153.35 4092.77 1153.5 4092.94 1153.7 4093.04C1153.9 4093.14 1154.13 4093.15 1154.34 4093.08C1154.55 4093.01 1154.73 4092.86 1154.83 4092.66C1154.93 4092.46 1154.94 4092.23 1154.87 4092.01L1154.07 4092.28L1153.28 4092.55Z" fill="#747474"/>
</g>
</g>
<g id="Group 32">
<rect id="Rectangle 125_3" x="1086.2" y="4097.34" width="73.4316" height="5.05263" rx="2.52632" fill="#FDBC60"/>
<path id="Rectangle 126_3" d="M1086.2 4100.71H1159.63V4100.71C1159.63 4101.64 1158.88 4102.39 1157.95 4102.39H1087.88C1086.95 4102.39 1086.2 4101.64 1086.2 4100.71V4100.71Z" fill="#D08834"/>
<g id="Group 28_3">
<circle id="Ellipse 85_5" cx="1091.59" cy="4099.69" r="0.842105" fill="#D9D9D9"/>
<path id="Ellipse 87_5" d="M1090.79 4099.96C1090.86 4100.18 1091.02 4100.35 1091.22 4100.45C1091.42 4100.55 1091.65 4100.56 1091.86 4100.49C1092.07 4100.42 1092.24 4100.27 1092.34 4100.07C1092.44 4099.87 1092.46 4099.64 1092.39 4099.42L1091.59 4099.69L1090.79 4099.96Z" fill="#747474"/>
</g>
<g id="Group 29_3">
<circle id="Ellipse 85_6" cx="1154.07" cy="4099.69" r="0.842105" fill="#D9D9D9"/>
<path id="Ellipse 87_6" d="M1153.28 4099.96C1153.35 4100.18 1153.5 4100.35 1153.7 4100.45C1153.9 4100.55 1154.13 4100.56 1154.34 4100.49C1154.55 4100.42 1154.73 4100.27 1154.83 4100.07C1154.93 4099.87 1154.94 4099.64 1154.87 4099.42L1154.07 4099.69L1153.28 4099.96Z" fill="#747474"/>
</g>
</g>
<g id="Group 33">
<path id="Rectangle 125_4" d="M1083 4111.11C1083 4108.06 1085.47 4105.59 1088.52 4105.59H1157.48C1160.53 4105.59 1163 4108.06 1163 4111.11V4111.11C1163 4111.88 1162.38 4112.49 1161.62 4112.49H1084.38C1083.62 4112.49 1083 4111.88 1083 4111.11V4111.11Z" fill="#D38934"/>
<path id="Rectangle 126_4" d="M1083 4109.5H1163V4109.5C1163 4111.16 1161.66 4112.49 1160.01 4112.49H1085.99C1084.34 4112.49 1083 4111.16 1083 4109.5V4109.5Z" fill="#AE612B"/>
</g>
</g>
<g id="Sitzbank 2">
<rect id="Rectangle 127_2" x="427.073" y="2299" width="3.2" height="24.5895" fill="black"/>
<rect id="Rectangle 129_2" x="423.874" y="2328.98" width="3.2" height="15.8316" fill="black"/>
<rect id="Rectangle 130_2" x="492.758" y="2328.98" width="3.2" height="15.8316" fill="black"/>
<rect id="Rectangle 128_2" x="489.558" y="2299" width="3.2" height="24.5895" fill="black"/>
<g id="Group 30_2">
<rect id="Rectangle 125_5" x="423.2" y="2300.52" width="73.4316" height="5.05263" rx="2.52632" fill="#FDBC60"/>
<path id="Rectangle 126_5" d="M423.2 2303.88H496.632V2303.88C496.632 2304.81 495.878 2305.57 494.948 2305.57H424.884C423.954 2305.57 423.2 2304.81 423.2 2303.88V2303.88Z" fill="#D08834"/>
<g id="Group 28_4">
<circle id="Ellipse 85_7" cx="428.589" cy="2302.87" r="0.842105" fill="#D9D9D9"/>
<path id="Ellipse 87_7" d="M427.791 2303.14C427.863 2303.35 428.016 2303.53 428.216 2303.63C428.416 2303.73 428.647 2303.74 428.859 2303.67C429.07 2303.6 429.245 2303.45 429.344 2303.25C429.443 2303.05 429.458 2302.82 429.387 2302.6L428.589 2302.87L427.791 2303.14Z" fill="#747474"/>
</g>
<g id="Group 29_4">
<circle id="Ellipse 85_8" cx="491.074" cy="2302.87" r="0.842105" fill="#D9D9D9"/>
<path id="Ellipse 87_8" d="M490.276 2303.14C490.347 2303.35 490.5 2303.53 490.7 2303.63C490.9 2303.73 491.132 2303.74 491.343 2303.67C491.555 2303.6 491.729 2303.45 491.828 2303.25C491.927 2303.05 491.943 2302.82 491.871 2302.6L491.074 2302.87L490.276 2303.14Z" fill="#747474"/>
</g>
</g>
<g id="Group 31_2">
<rect id="Rectangle 125_6" x="423.2" y="2307.93" width="73.4316" height="5.05263" rx="2.52632" fill="#FDBC60"/>
<path id="Rectangle 126_6" d="M423.2 2311.29H496.632V2311.29C496.632 2312.23 495.878 2312.98 494.948 2312.98H424.884C423.954 2312.98 423.2 2312.23 423.2 2311.29V2311.29Z" fill="#D08834"/>
<g id="Group 28_5">
<circle id="Ellipse 85_9" cx="428.589" cy="2310.28" r="0.842105" fill="#D9D9D9"/>
<path id="Ellipse 87_9" d="M427.791 2310.55C427.863 2310.77 428.016 2310.94 428.216 2311.04C428.416 2311.14 428.647 2311.15 428.859 2311.08C429.07 2311.01 429.245 2310.86 429.344 2310.66C429.443 2310.46 429.458 2310.23 429.387 2310.01L428.589 2310.28L427.791 2310.55Z" fill="#747474"/>
</g>
<g id="Group 29_5">
<circle id="Ellipse 85_10" cx="491.074" cy="2310.28" r="0.842105" fill="#D9D9D9"/>
<path id="Ellipse 87_10" d="M490.276 2310.55C490.347 2310.77 490.5 2310.94 490.7 2311.04C490.9 2311.14 491.132 2311.15 491.343 2311.08C491.555 2311.01 491.729 2310.86 491.828 2310.66C491.927 2310.46 491.943 2310.23 491.871 2310.01L491.074 2310.28L490.276 2310.55Z" fill="#747474"/>
</g>
</g>
<g id="Group 32_2">
<rect id="Rectangle 125_7" x="423.2" y="2315.34" width="73.4316" height="5.05263" rx="2.52632" fill="#FDBC60"/>
<path id="Rectangle 126_7" d="M423.2 2318.71H496.632V2318.71C496.632 2319.64 495.878 2320.39 494.948 2320.39H424.884C423.954 2320.39 423.2 2319.64 423.2 2318.71V2318.71Z" fill="#D08834"/>
<g id="Group 28_6">
<circle id="Ellipse 85_11" cx="428.589" cy="2317.69" r="0.842105" fill="#D9D9D9"/>
<path id="Ellipse 87_11" d="M427.791 2317.96C427.863 2318.18 428.016 2318.35 428.216 2318.45C428.416 2318.55 428.647 2318.56 428.859 2318.49C429.07 2318.42 429.245 2318.27 429.344 2318.07C429.443 2317.87 429.458 2317.64 429.387 2317.42L428.589 2317.69L427.791 2317.96Z" fill="#747474"/>
</g>
<g id="Group 29_6">
<circle id="Ellipse 85_12" cx="491.074" cy="2317.69" r="0.842105" fill="#D9D9D9"/>
<path id="Ellipse 87_12" d="M490.276 2317.96C490.347 2318.18 490.5 2318.35 490.7 2318.45C490.9 2318.55 491.132 2318.56 491.343 2318.49C491.555 2318.42 491.729 2318.27 491.828 2318.07C491.927 2317.87 491.943 2317.64 491.871 2317.42L491.074 2317.69L490.276 2317.96Z" fill="#747474"/>
</g>
</g>
<g id="Group 33_2">
<path id="Rectangle 125_8" d="M420 2329.11C420 2326.06 422.473 2323.59 425.524 2323.59H494.476C497.527 2323.59 500 2326.06 500 2329.11V2329.11C500 2329.88 499.382 2330.49 498.619 2330.49H421.381C420.618 2330.49 420 2329.88 420 2329.11V2329.11Z" fill="#D38934"/>
<path id="Rectangle 126_8" d="M420 2327.5H500V2327.5C500 2329.16 498.66 2330.49 497.008 2330.49H422.992C421.34 2330.49 420 2329.16 420 2327.5V2327.5Z" fill="#AE612B"/>
</g>
</g>
<g id="Sitzbank 1">
<rect id="Rectangle 127_3" x="184.073" y="5749" width="3.2" height="24.5895" fill="black"/>
<rect id="Rectangle 129_3" x="180.874" y="5778.98" width="3.2" height="15.8316" fill="black"/>
<rect id="Rectangle 130_3" x="249.758" y="5778.98" width="3.2" height="15.8316" fill="black"/>
<rect id="Rectangle 128_3" x="246.558" y="5749" width="3.2" height="24.5895" fill="black"/>
<g id="Group 30_3">
<rect id="Rectangle 125_9" x="180.2" y="5750.52" width="73.4316" height="5.05263" rx="2.52632" fill="#FDBC60"/>
<path id="Rectangle 126_9" d="M180.2 5753.88H253.632V5753.88C253.632 5754.81 252.878 5755.57 251.948 5755.57H181.884C180.954 5755.57 180.2 5754.81 180.2 5753.88V5753.88Z" fill="#D08834"/>
<g id="Group 28_7">
<circle id="Ellipse 85_13" cx="185.589" cy="5752.87" r="0.842105" fill="#D9D9D9"/>
<path id="Ellipse 87_13" d="M184.791 5753.14C184.863 5753.35 185.016 5753.53 185.216 5753.63C185.416 5753.73 185.647 5753.74 185.859 5753.67C186.07 5753.6 186.245 5753.45 186.344 5753.25C186.443 5753.05 186.458 5752.82 186.387 5752.6L185.589 5752.87L184.791 5753.14Z" fill="#747474"/>
</g>
<g id="Group 29_7">
<circle id="Ellipse 85_14" cx="248.074" cy="5752.87" r="0.842105" fill="#D9D9D9"/>
<path id="Ellipse 87_14" d="M247.276 5753.14C247.347 5753.35 247.5 5753.53 247.7 5753.63C247.9 5753.73 248.132 5753.74 248.343 5753.67C248.555 5753.6 248.729 5753.45 248.828 5753.25C248.927 5753.05 248.943 5752.82 248.871 5752.6L248.074 5752.87L247.276 5753.14Z" fill="#747474"/>
</g>
</g>
<g id="Group 31_3">
<rect id="Rectangle 125_10" x="180.2" y="5757.93" width="73.4316" height="5.05263" rx="2.52632" fill="#FDBC60"/>
<path id="Rectangle 126_10" d="M180.2 5761.29H253.632V5761.29C253.632 5762.23 252.878 5762.98 251.948 5762.98H181.884C180.954 5762.98 180.2 5762.23 180.2 5761.29V5761.29Z" fill="#D08834"/>
<g id="Group 28_8">
<circle id="Ellipse 85_15" cx="185.589" cy="5760.28" r="0.842105" fill="#D9D9D9"/>
<path id="Ellipse 87_15" d="M184.791 5760.55C184.863 5760.77 185.016 5760.94 185.216 5761.04C185.416 5761.14 185.647 5761.15 185.859 5761.08C186.07 5761.01 186.245 5760.86 186.344 5760.66C186.443 5760.46 186.458 5760.23 186.387 5760.01L185.589 5760.28L184.791 5760.55Z" fill="#747474"/>
</g>
<g id="Group 29_8">
<circle id="Ellipse 85_16" cx="248.074" cy="5760.28" r="0.842105" fill="#D9D9D9"/>
<path id="Ellipse 87_16" d="M247.276 5760.55C247.347 5760.77 247.5 5760.94 247.7 5761.04C247.9 5761.14 248.132 5761.15 248.343 5761.08C248.555 5761.01 248.729 5760.86 248.828 5760.66C248.927 5760.46 248.943 5760.23 248.871 5760.01L248.074 5760.28L247.276 5760.55Z" fill="#747474"/>
</g>
</g>
<g id="Group 32_3">
<rect id="Rectangle 125_11" x="180.2" y="5765.34" width="73.4316" height="5.05263" rx="2.52632" fill="#FDBC60"/>
<path id="Rectangle 126_11" d="M180.2 5768.71H253.632V5768.71C253.632 5769.64 252.878 5770.39 251.948 5770.39H181.884C180.954 5770.39 180.2 5769.64 180.2 5768.71V5768.71Z" fill="#D08834"/>
<g id="Group 28_9">
<circle id="Ellipse 85_17" cx="185.589" cy="5767.69" r="0.842105" fill="#D9D9D9"/>
<path id="Ellipse 87_17" d="M184.791 5767.96C184.863 5768.18 185.016 5768.35 185.216 5768.45C185.416 5768.55 185.647 5768.56 185.859 5768.49C186.07 5768.42 186.245 5768.27 186.344 5768.07C186.443 5767.87 186.458 5767.64 186.387 5767.42L185.589 5767.69L184.791 5767.96Z" fill="#747474"/>
</g>
<g id="Group 29_9">
<circle id="Ellipse 85_18" cx="248.074" cy="5767.69" r="0.842105" fill="#D9D9D9"/>
<path id="Ellipse 87_18" d="M247.276 5767.96C247.347 5768.18 247.5 5768.35 247.7 5768.45C247.9 5768.55 248.132 5768.56 248.343 5768.49C248.555 5768.42 248.729 5768.27 248.828 5768.07C248.927 5767.87 248.943 5767.64 248.871 5767.42L248.074 5767.69L247.276 5767.96Z" fill="#747474"/>
</g>
</g>
<g id="Group 33_3">
<path id="Rectangle 125_12" d="M177 5779.11C177 5776.06 179.473 5773.59 182.524 5773.59H251.476C254.527 5773.59 257 5776.06 257 5779.11V5779.11C257 5779.88 256.382 5780.49 255.619 5780.49H178.381C177.618 5780.49 177 5779.88 177 5779.11V5779.11Z" fill="#D38934"/>
<path id="Rectangle 126_12" d="M177 5777.5H257V5777.5C257 5779.16 255.66 5780.49 254.008 5780.49H179.992C178.34 5780.49 177 5779.16 177 5777.5V5777.5Z" fill="#AE612B"/>
</g>
</g>
</g>
<defs>
<clipPath id="clip0_410_2304">
<rect width="1355" height="5814" fill="white"/>
</clipPath>
</defs>
</svg>
